<svg width="840" height="500" xmlns="http://www.w3.org/2000/svg" viewBox="0 0 840 500" font-family="system-ui, sans-serif">
  <rect width="840" height="500" fill="#FAFAFA" rx="12"/>
  <text x="420" y="34" text-anchor="middle" font-size="18" font-weight="bold" fill="#1A237E">一张对称 VA，两条搬运腿</text>
  <text x="420" y="56" text-anchor="middle" font-size="12" fill="#757575">算地址统一（Symmetric Memory）· 搬数据分家（LSA 内存语义 / GIN 消息语义）</text>

  <!-- Node 0 -->
  <rect x="30" y="80" width="360" height="180" fill="#E3F2FD" stroke="#1565C0" stroke-width="2" rx="10"/>
  <text x="210" y="104" text-anchor="middle" font-size="13" font-weight="bold" fill="#0D47A1">节点 0（NVLink 域 = LSA Team）</text>
  <rect x="55" y="120" width="140" height="110" fill="white" stroke="#42A5F5" rx="6"/>
  <text x="125" y="140" text-anchor="middle" font-size="12" font-weight="bold" fill="#1565C0">GPU 0（本卡）</text>
  <rect x="65" y="152" width="120" height="20" fill="#BBDEFB"/>
  <rect x="65" y="174" width="120" height="20" fill="#E1F5FE"/>
  <rect x="65" y="196" width="120" height="20" fill="#E1F5FE"/>
  <text x="125" y="167" text-anchor="middle" font-size="9" fill="#0D47A1">对称 VA 布局</text>
  <rect x="215" y="120" width="140" height="110" fill="white" stroke="#42A5F5" rx="6"/>
  <text x="285" y="140" text-anchor="middle" font-size="12" font-weight="bold" fill="#1565C0">GPU 1（同节点 peer）</text>
  <rect x="225" y="152" width="120" height="20" fill="#E1F5FE"/>
  <rect x="225" y="174" width="120" height="20" fill="#BBDEFB"/>
  <rect x="225" y="196" width="120" height="20" fill="#E1F5FE"/>
  <text x="285" y="167" text-anchor="middle" font-size="9" fill="#0D47A1">同样的布局</text>
  <!-- LSA arrow -->
  <line x1="195" y1="184" x2="215" y2="184" stroke="#2E7D32" stroke-width="4"/>
  <polygon points="215,184 207,180 207,188" fill="#2E7D32"/>
  <text x="210" y="250" text-anchor="middle" font-size="11" font-weight="bold" fill="#2E7D32">LSA：一条 LD/ST 指令直接读写对端显存</text>

  <!-- Node 1 -->
  <rect x="450" y="80" width="360" height="180" fill="#FCE4EC" stroke="#C62828" stroke-width="2" rx="10"/>
  <text x="630" y="104" text-anchor="middle" font-size="13" font-weight="bold" fill="#B71C1C">节点 1（跨网卡 = GIN 域）</text>
  <rect x="475" y="120" width="140" height="110" fill="white" stroke="#EF5350" rx="6"/>
  <text x="545" y="140" text-anchor="middle" font-size="12" font-weight="bold" fill="#C62828">GPU 8（远端 peer）</text>
  <rect x="485" y="152" width="120" height="20" fill="#F8BBD0"/>
  <rect x="485" y="174" width="120" height="20" fill="#FCE4EC"/>
  <rect x="485" y="196" width="120" height="20" fill="#FCE4EC"/>
  <text x="545" y="167" text-anchor="middle" font-size="9" fill="#B71C1C">同样的对称布局</text>
  <text x="700" y="180" text-anchor="middle" font-size="10" fill="#B71C1C">地址算法一样，</text>
  <text x="700" y="196" text-anchor="middle" font-size="10" fill="#B71C1C">但搬运方式不同</text>

  <!-- GIN arrow across nodes -->
  <line x1="390" y1="170" x2="450" y2="170" stroke="#E65100" stroke-width="4" stroke-dasharray="8,4"/>
  <polygon points="450,170 442,166 442,174" fill="#E65100"/>
  <text x="420" y="290" text-anchor="middle" font-size="11" font-weight="bold" fill="#E65100">GIN：构造 RDMA WQE / 写 GFD 给 CPU 代理 → put/get 发消息</text>

  <!-- unified address formula -->
  <rect x="30" y="310" width="780" height="66" fill="#FFFDE7" stroke="#F9A825" stroke-width="1" rx="6"/>
  <text x="45" y="332" font-size="12" fill="#F57F17">💡 统一的地址算法（两条腿共用）：</text>
  <text x="45" y="354" font-size="12" fill="#795548" font-family="monospace">peer 地址 = lsaFlatBase + peer × bigSize + bigOffset + userOffset</text>
  <text x="45" y="370" font-size="10" fill="#8D6E63">→ 无论 peer 在机内还是跨机，算法完全一样；差别只在「拿到地址之后怎么搬」。</text>

  <!-- TPU comparison -->
  <rect x="30" y="386" width="780" height="96" fill="#E8EAF6" stroke="#3F51B5" stroke-width="1" rx="6"/>
  <text x="45" y="408" font-size="12" font-weight="bold" fill="#283593">🔗 TPU 对比</text>
  <text x="45" y="428" font-size="11" fill="#37474F">TPU 也有两条腿：ICI（芯片间 mesh，对应 LSA/scaleup）+ DCN（跨 slice，对应 GIN/scaleout）。</text>
  <text x="45" y="446" font-size="11" fill="#37474F">但两条腿的「搬数据」都由 XLA 编译器统一生成 collective 算子，程序员看到的只有一个 all-gather。</text>
  <text x="45" y="464" font-size="11" fill="#37474F">GPU 这里 LSA/GIN 双语义要开发者显式区分——这正是 DeepSeek 抱怨的「ScaleUP/ScaleOut 语义复杂性」。</text>
</svg>
