<svg width="800" height="480" xmlns="http://www.w3.org/2000/svg" viewBox="0 0 800 480" font-family="system-ui, sans-serif">
  <!-- Background -->
  <rect width="800" height="480" fill="#FAFAFA" rx="12"/>
  
  <!-- Title -->
  <text x="400" y="35" text-anchor="middle" font-size="18" font-weight="bold" fill="#1A237E">Direct Dispatch Kernel — Warp 角色分工</text>
  
  <!-- SM Box -->
  <rect x="30" y="55" width="740" height="400" fill="white" stroke="#E0E0E0" stroke-width="2" rx="10"/>
  <text x="50" y="80" font-size="14" font-weight="bold" fill="#424242">SM (1 of 108)</text>
  
  <!-- Notify Warps -->
  <rect x="50" y="95" width="160" height="130" fill="#E3F2FD" stroke="#1565C0" stroke-width="1.5" rx="8"/>
  <text x="130" y="118" text-anchor="middle" font-size="13" font-weight="bold" fill="#1565C0">Notify Warps</text>
  <text x="130" y="138" text-anchor="middle" font-size="11" fill="#37474F">Warp 0-3 (固定 4 个)</text>
  <line x1="60" y1="148" x2="200" y2="148" stroke="#90CAF9" stroke-width="1"/>
  <text x="130" y="166" text-anchor="middle" font-size="10" fill="#546E7A">① 统计 per-expert token 数</text>
  <text x="130" y="182" text-anchor="middle" font-size="10" fill="#546E7A">② 通知远端 rank</text>
  <text x="130" y="198" text-anchor="middle" font-size="10" fill="#546E7A">③ 等远端 count 回复</text>
  <text x="130" y="214" text-anchor="middle" font-size="10" fill="#546E7A">④ CPU 同步 (可跳过)</text>

  <!-- Dispatch Warps -->
  <rect x="230" y="95" width="160" height="130" fill="#E8F5E9" stroke="#2E7D32" stroke-width="1.5" rx="8"/>
  <text x="310" y="118" text-anchor="middle" font-size="13" font-weight="bold" fill="#2E7D32">Dispatch Warps</text>
  <text x="310" y="138" text-anchor="middle" font-size="11" fill="#37474F">Warp 4-N (可变)</text>
  <line x1="240" y1="148" x2="380" y2="148" stroke="#A5D6A7" stroke-width="1"/>
  <text x="310" y="166" text-anchor="middle" font-size="10" fill="#546E7A">① TMA load hidden+SF</text>
  <text x="310" y="182" text-anchor="middle" font-size="10" fill="#546E7A">② 读 topk → 写 metadata</text>
  <text x="310" y="198" text-anchor="middle" font-size="10" fill="#546E7A">③ Dedup + slot 分配</text>
  <text x="310" y="214" text-anchor="middle" font-size="10" fill="#546E7A">④ TMA store NVLink/RDMA</text>

  <!-- Forward Warps (Hybrid only) -->
  <rect x="410" y="95" width="160" height="130" fill="#FFF3E0" stroke="#E65100" stroke-width="1.5" rx="8" stroke-dasharray="6,3"/>
  <text x="490" y="118" text-anchor="middle" font-size="13" font-weight="bold" fill="#E65100">Forward Warps</text>
  <text x="490" y="138" text-anchor="middle" font-size="11" fill="#37474F">仅 Hybrid 模式</text>
  <line x1="420" y1="148" x2="560" y2="148" stroke="#FFCC80" stroke-width="1"/>
  <text x="490" y="166" text-anchor="middle" font-size="10" fill="#546E7A">接收 RDMA 数据</text>
  <text x="490" y="182" text-anchor="middle" font-size="10" fill="#546E7A">↓</text>
  <text x="490" y="198" text-anchor="middle" font-size="10" fill="#546E7A">NVLink 转发到</text>
  <text x="490" y="214" text-anchor="middle" font-size="10" fill="#546E7A">本节点其他 GPU</text>

  <!-- Scaleout Warps (Hybrid only) -->
  <rect x="590" y="95" width="160" height="130" fill="#FCE4EC" stroke="#C62828" stroke-width="1.5" rx="8" stroke-dasharray="6,3"/>
  <text x="670" y="118" text-anchor="middle" font-size="13" font-weight="bold" fill="#C62828">Scaleout Warps</text>
  <text x="670" y="138" text-anchor="middle" font-size="11" fill="#37474F">仅 Hybrid 模式</text>
  <line x1="600" y1="148" x2="740" y2="148" stroke="#EF9A9A" stroke-width="1"/>
  <text x="670" y="166" text-anchor="middle" font-size="10" fill="#546E7A">RDMA put 到远端节点</text>
  <text x="670" y="182" text-anchor="middle" font-size="10" fill="#546E7A">↓</text>
  <text x="670" y="198" text-anchor="middle" font-size="10" fill="#546E7A">跨机器搬运数据</text>
  <text x="670" y="214" text-anchor="middle" font-size="10" fill="#546E7A">+ signal 通知到达</text>

  <!-- Flow arrows -->
  <defs>
    <marker id="arrowD" markerWidth="8" markerHeight="6" refX="8" refY="3" orient="auto">
      <path d="M0,0 L8,3 L0,6" fill="#757575"/>
    </marker>
  </defs>
  
  <!-- Timeline -->
  <rect x="50" y="245" width="700" height="55" fill="#F5F5F5" stroke="#BDBDBD" stroke-width="1" rx="6"/>
  <text x="60" y="265" font-size="12" font-weight="bold" fill="#424242">执行时序 →</text>
  
  <rect x="70" y="272" width="100" height="20" fill="#E3F2FD" stroke="#1565C0" rx="3"/>
  <text x="120" y="287" text-anchor="middle" font-size="9" fill="#1565C0">Notify 先行</text>
  
  <rect x="180" y="272" width="30" height="20" fill="#EEEEEE" stroke="#9E9E9E" rx="3"/>
  <text x="195" y="287" text-anchor="middle" font-size="9" fill="#757575">等</text>
  
  <rect x="220" y="272" width="200" height="20" fill="#E8F5E9" stroke="#2E7D32" rx="3"/>
  <text x="320" y="287" text-anchor="middle" font-size="9" fill="#2E7D32">Dispatch 主循环 (per-token)</text>
  
  <rect x="430" y="272" width="120" height="20" fill="#FFF3E0" stroke="#E65100" rx="3"/>
  <text x="490" y="287" text-anchor="middle" font-size="9" fill="#E65100">Forward 转发</text>
  
  <rect x="560" y="272" width="120" height="20" fill="#FCE4EC" stroke="#C62828" rx="3"/>
  <text x="620" y="287" text-anchor="middle" font-size="9" fill="#C62828">Scaleout RDMA</text>
  
  <!-- Analogy box -->
  <rect x="50" y="315" width="700" height="55" fill="#FFFDE7" stroke="#F9A825" stroke-width="1" rx="6"/>
  <text x="65" y="335" font-size="12" fill="#F57F17">💡 类比：餐厅后厨</text>
  <text x="65" y="352" font-size="11" fill="#795548">Notify = 前台点单员（统计每桌要几道菜）→ Dispatch = 备料厨师（把食材送到各灶台）</text>
  <text x="65" y="366" font-size="11" fill="#795548">Forward = 传菜员（在楼层之间传菜）→ Scaleout = 外卖骑手（送到其他门店）</text>

  <!-- TPU comparison -->
  <rect x="50" y="385" width="700" height="60" fill="#E8EAF6" stroke="#3F51B5" stroke-width="1" rx="6"/>
  <text x="65" y="405" font-size="12" fill="#283593">🔗 TPU 对比</text>
  <text x="65" y="422" font-size="11" fill="#37474F">TPU 没有"warp 分工"概念 — XLA compiler 把通信编译成 ICI/DCN 硬件指令序列。</text>
  <text x="65" y="438" font-size="11" fill="#37474F">GPU 的 warp specialization 相当于让程序员手动做 XLA 做的事，换来对不规则通信的完全控制权。</text>
</svg>
