<svg width="840" height="500" xmlns="http://www.w3.org/2000/svg" viewBox="0 0 840 500" font-family="system-ui, sans-serif">
  <rect width="840" height="500" fill="#FAFAFA" rx="12"/>
  <text x="420" y="32" text-anchor="middle" font-size="18" font-weight="bold" fill="#1A237E">Hybrid Dispatch — 两跳数据流</text>
  <text x="420" y="54" text-anchor="middle" font-size="12" fill="#757575">源 rank (机器0) → 目标 rank (机器1 的 scaleup peer)</text>

  <defs>
    <marker id="hdArrow" markerWidth="9" markerHeight="7" refX="9" refY="3.5" orient="auto">
      <path d="M0,0 L9,3.5 L0,7" fill="#E65100"/>
    </marker>
    <marker id="hdArrowN" markerWidth="9" markerHeight="7" refX="9" refY="3.5" orient="auto">
      <path d="M0,0 L9,3.5 L0,7" fill="#2E7D32"/>
    </marker>
  </defs>

  <!-- Source machine -->
  <rect x="30" y="75" width="230" height="230" fill="#E3F2FD" stroke="#1565C0" stroke-width="2" rx="10"/>
  <text x="145" y="98" text-anchor="middle" font-size="13" font-weight="bold" fill="#0D47A1">机器 0 — 源 rank</text>

  <rect x="50" y="115" width="190" height="45" fill="#E8F5E9" stroke="#2E7D32" rx="6"/>
  <text x="145" y="133" text-anchor="middle" font-size="11" font-weight="bold" fill="#2E7D32">① Notify warp</text>
  <text x="145" y="150" text-anchor="middle" font-size="9" fill="#546E7A">算 dst_scaleup_slot + 通知</text>

  <rect x="50" y="170" width="190" height="45" fill="#FCE4EC" stroke="#C62828" rx="6"/>
  <text x="145" y="188" text-anchor="middle" font-size="11" font-weight="bold" fill="#C62828">② Scaleout-Send warp</text>
  <text x="145" y="205" text-anchor="middle" font-size="9" fill="#546E7A">gin.put&lt;Rail&gt; RDMA 发出</text>

  <rect x="50" y="225" width="190" height="60" fill="white" stroke="#90A4AE" rx="6"/>
  <text x="145" y="245" text-anchor="middle" font-size="10" font-weight="bold" fill="#455A64">scaleout_send_buffer</text>
  <text x="145" y="262" text-anchor="middle" font-size="9" fill="#757575">RDMA staging (打包待发)</text>
  <text x="145" y="277" text-anchor="middle" font-size="9" fill="#757575">kNumTopk 份副本</text>

  <!-- Target machine -->
  <rect x="450" y="75" width="360" height="300" fill="#FCE4EC" stroke="#C62828" stroke-width="2" rx="10"/>
  <text x="630" y="98" text-anchor="middle" font-size="13" font-weight="bold" fill="#B71C1C">机器 1 — 目标机</text>

  <!-- relay rank -->
  <rect x="470" y="115" width="320" height="120" fill="#FFF8E1" stroke="#F9A825" stroke-width="1.5" rx="8"/>
  <text x="630" y="135" text-anchor="middle" font-size="11" font-weight="bold" fill="#F57F17">中转 rank (scaleout peer)</text>
  <rect x="485" y="145" width="290" height="40" fill="white" stroke="#90A4AE" rx="6"/>
  <text x="630" y="163" text-anchor="middle" font-size="10" font-weight="bold" fill="#455A64">scaleout_recv_buffer</text>
  <text x="630" y="178" text-anchor="middle" font-size="9" fill="#757575">RDMA 落地点（第 1 跳终点）</text>
  <rect x="485" y="192" width="290" height="38" fill="#FFF3E0" stroke="#E65100" rx="6"/>
  <text x="630" y="210" text-anchor="middle" font-size="11" font-weight="bold" fill="#E65100">③ Forward warp</text>
  <text x="630" y="224" text-anchor="middle" font-size="9" fill="#546E7A">查 topk → 链表 → NVLink 落地（第 2 跳）</text>

  <!-- scaleup peer -->
  <rect x="470" y="255" width="320" height="100" fill="#E8F5E9" stroke="#2E7D32" stroke-width="1.5" rx="8"/>
  <text x="630" y="275" text-anchor="middle" font-size="11" font-weight="bold" fill="#1B5E20">目标 scaleup peer (同机器 1)</text>
  <rect x="485" y="285" width="290" height="55" fill="white" stroke="#66BB6A" rx="6"/>
  <text x="630" y="305" text-anchor="middle" font-size="10" font-weight="bold" fill="#2E7D32">scaleup_buffer</text>
  <text x="630" y="322" text-anchor="middle" font-size="9" fill="#757575">expert 最终读取的输入 token</text>
  <text x="630" y="336" text-anchor="middle" font-size="9" fill="#757575">(NVLink 零拷贝写入 get_sym_ptr&lt;Lsa&gt;)</text>

  <!-- Hop 1: RDMA -->
  <line x1="240" y1="192" x2="470" y2="165" stroke="#E65100" stroke-width="3" stroke-dasharray="8,4" marker-end="url(#hdArrow)"/>
  <text x="355" y="150" text-anchor="middle" font-size="11" font-weight="bold" fill="#E65100">第 1 跳: RDMA 跨机</text>
  <text x="355" y="166" text-anchor="middle" font-size="9" fill="#E65100">~5-10μs</text>

  <!-- Hop 2: NVLink -->
  <line x1="630" y1="230" x2="630" y2="283" stroke="#2E7D32" stroke-width="3" marker-end="url(#hdArrowN)"/>
  <text x="700" y="258" text-anchor="middle" font-size="11" font-weight="bold" fill="#2E7D32">第 2 跳: NVLink</text>
  <text x="700" y="273" text-anchor="middle" font-size="9" fill="#2E7D32">~1μs 机内</text>

  <!-- TPU comparison -->
  <rect x="30" y="395" width="780" height="90" fill="#E8EAF6" stroke="#3F51B5" stroke-width="1" rx="6"/>
  <text x="45" y="417" font-size="12" font-weight="bold" fill="#283593">🔗 TPU 对比：DCN → ICI 两跳</text>
  <text x="45" y="437" font-size="11" fill="#37474F">TPU 的跨 slice all-to-all 也是两跳：DCN 把数据搬到目标 slice 的某个芯片，再走 ICI 分发到目标芯片。</text>
  <text x="45" y="455" font-size="11" fill="#37474F">差异是 TPU 的"中转 + 转发"由 XLA collective 编译器生成，没有显式的 "Forward warp"。</text>
  <text x="45" y="473" font-size="11" fill="#37474F">GPU 的 Forward warp = 手动实现 TPU 编译器自动做的 DCN→ICI relay，代价是 SM 占用，收益是灵活度。</text>
</svg>
